<?xml version="1.0" encoding="UTF-8" standalone="no"?>
<svg
    width="485"
    height="485"
   xmlns:dc="http://purl.org/dc/elements/1.1/"
   xmlns:cc="http://creativecommons.org/ns#"
   xmlns:rdf="http://www.w3.org/1999/02/22-rdf-syntax-ns#"
   xmlns:svg="http://www.w3.org/2000/svg"
   xmlns="http://www.w3.org/2000/svg"
   xmlns:sodipodi="http://sodipodi.sourceforge.net/DTD/sodipodi-0.dtd"
   xmlns:inkscape="http://www.inkscape.org/namespaces/inkscape"
   id="svg4888"
   sodipodi:docname="simple-gears.svg"
   viewBox="0 0 400 400"
   version="1.1"
   inkscape:version="1.0.1 (3bc2e813f5, 2020-09-07)">
  <defs
     id="defs56" />
  <sodipodi:namedview
     id="base"
     bordercolor="#666666"
     inkscape:pageshadow="2"
     inkscape:window-y="-8"
     pagecolor="#ffffff"
     inkscape:window-height="1017"
     inkscape:window-maximized="1"
     inkscape:zoom="1"
     inkscape:window-x="1912"
     showgrid="false"
     borderopacity="1.0"
     inkscape:current-layer="text11467"
     inkscape:cx="246.99821"
     inkscape:cy="281.14366"
     showguides="true"
     inkscape:guide-bbox="true"
     inkscape:window-width="1920"
     inkscape:pageopacity="0.0"
     inkscape:document-units="px"
     inkscape:document-rotation="0" />
  <g
     id="layer1"
     inkscape:label="Layer 1"
     inkscape:groupmode="layer"
     transform="translate(0 -652.36)">
    <g
       id="text11467"
       style="fill:#000000">
      <g
         id="g7364"
         transform="matrix(1.2690356,0,0,1.2690356,-57.505008,-222.83017)">
        <g
           id="g7357">
          <path
             id="path7367"
             style="fill:#000000"
             inkscape:connector-curvature="0"
             d="m 154.9,698.17 -5.6658,20.776 c -3.5718,0.7411 -7.0365,1.6451 -10.451,2.7702 l -15.235,-15.236 -24.302,14.103 5.5404,20.776 c -2.699,2.4087 -5.2679,4.986 -7.6812,7.6809 l -20.776,-5.5403 -14.103,24.302 15.235,15.236 c -1.1434,3.4661 -2.1481,7.0756 -2.896,10.703 v 0.12575 l -20.65,5.2885 v 28.079 l 20.65,5.2885 c 0.7708,3.7885 1.8203,7.4676 3.0221,11.081 l -15.362,14.984 14.103,24.302 20.524,-5.7921 c 2.518,2.8375 5.2255,5.5354 8.0588,8.0586 l -5.6666,20.65 24.302,14.103 14.984,-15.362 c 3.5749,1.1893 7.2078,2.2546 10.955,3.022 l 5.4143,20.65 h 28.08 l 5.2878,-20.65 c 3.7629,-0.7706 7.492,-1.826 11.081,-3.022 l 14.858,15.362 24.427,-14.103 -5.7915,-20.65 c 2.8142,-2.506 5.5541,-5.1165 8.0584,-7.9327 l 20.65,5.6662 13.977,-24.302 -15.236,-14.858 c 1.1936,-3.5722 2.2505,-7.2102 3.0221,-10.955 l 20.65,-5.5403 v -28.079 l -20.65,-5.5403 c -0.74394,-3.5858 -1.7651,-7.149 -2.896,-10.577 l 15.11,-15.236 -13.977,-24.302 -20.902,5.6662 c -2.4171,-2.7048 -4.9756,-5.2637 -7.6804,-7.6809 l 5.6658,-20.902 -24.427,-14.103 -15.11,15.236 c -3.3802,-1.1152 -6.9178,-1.9052 -10.451,-2.6442 l -5.6658,-20.902 h -28.08 z" />
          <g
             id="g7373"
             style="fill:#ffffff"
             transform="matrix(3.2361,0,0,3.2361,7655.9,1739.2)">
            <path
               id="path7375"
               style="fill:#ffffff"
               inkscape:connector-curvature="0"
               d="m -2317.6,-319.28 -2.3986,9.0029 -6.6044,-6.6044 -7.0267,4.0538 2.4323,9.0198 -9.0198,-2.4154 -4.0539,7.0098 6.7058,6.672 -9.1212,2.3478 v 8.1077 l 9.2056,2.3479 -6.7902,6.6551 4.0539,7.0098 9.1549,-2.5843 -2.5674,9.1887 7.0267,4.0538 6.6382,-6.8071 2.3648,9.2225 h 8.1077 l 2.3478,-9.2225 6.6551,6.8071 7.0267,-4.0538 -2.5675,-9.155 9.155,2.5506 4.0538,-7.0098 -6.7226,-6.5537 9.138,-2.4492 v -8.1077 l -9.0367,-2.3985 6.6213,-6.6213 -4.0538,-7.0098 -9.003,2.4323 2.4155,-9.0367 -7.0267,-4.0538 -6.5875,6.6213 -2.4154,-9.0198 h -8.1077 z" />
            <circle
               id="path7377"
               style="fill:#ffffff"
               transform="matrix(0.5413,0,0,0.5413,-2926.4,-355.49)"
               cx="1132.25"
               cy="128.11218"
               r="51.25" />
          </g>
          <path
             id="path7463"
             style="opacity:0.96;fill:#000000;stroke:#464646;stroke-width:0.20504"
             inkscape:connector-curvature="0"
             d="m 168.94,772.2 c -22.648,0 -40.998,18.349 -40.998,40.998 0,22.648 18.349,40.998 40.998,40.998 22.648,0 40.998,-18.349 40.998,-40.998 0,-22.648 -18.349,-40.998 -40.998,-40.998 z m 0,8.3942 c 17.974,0 32.603,14.629 32.603,32.603 0,17.974 -14.629,32.482 -32.603,32.482 -17.974,0 -32.603,-14.507 -32.603,-32.482 0,-17.974 14.629,-32.603 32.603,-32.603 z" />
        </g>
        <g
           id="g7347">
          <path
             id="path7369"
             style="fill:#000000"
             inkscape:connector-curvature="0"
             d="m 279.04,865.3 -4.1339,15.244 c -5.6409,1.3373 -10.847,3.6059 -15.631,6.5884 l -13.564,-8.0094 -11.497,11.497 8.0089,13.564 c -3.0256,4.8529 -5.2578,10.156 -6.5884,15.89 l -15.244,3.8755 v 16.277 l 15.244,3.8755 c 1.3244,5.6639 3.6072,10.957 6.5884,15.76 l -8.0089,13.564 11.497,11.627 13.564,-8.0094 c 4.8475,3.0192 10.165,5.1311 15.89,6.4592 l 3.8754,15.373 h 16.278 l 3.8754,-15.373 c 5.5953,-1.3083 10.873,-3.4026 15.631,-6.33 l 13.823,7.8802 11.497,-11.627 -8.0097,-13.564 c 2.9322,-4.7292 5.1301,-9.9376 6.4596,-15.502 l 15.373,-4.1339 v -16.277 l -15.373,-4.1339 c -1.3263,-5.5957 -3.5126,-10.749 -6.4596,-15.502 l 8.0097,-13.694 -11.497,-11.497 -13.693,7.8802 c -4.7206,-2.9215 -9.9508,-5.1336 -15.502,-6.4592 l -4.1339,-15.244 h -16.278 z" />
          <circle
             id="path7387"
             style="fill:#ffffff"
             transform="matrix(0.95792,0,0,0.95792,-797.43,809.36)"
             cx="1132.25"
             cy="128.11218"
             r="51.25" />
          <g
             id="g7389"
             style="fill:#ffffff"
             transform="matrix(1.7402,0,0,1.7402,-2299.7,636.92)">
            <path
               id="path7391"
               inkscape:connector-curvature="0"
               sodipodi:nodetypes="ccccccc"
               style="fill:#ffffff"
               d="m 1482.1,205.17 -9.2801,-36.151 9.2801,-34.97 h 8.7001 l 9.2801,34.675 -9.2801,36.446 z" />
            <path
               id="path7393"
               sodipodi:nodetypes="ccccccc"
               style="fill:#ffffff"
               inkscape:connector-curvature="0"
               d="m 1450.9,165.26 36.151,-9.2801 34.97,9.2801 v 8.7001 l -34.675,9.2801 -36.446,-9.2801 z" />
            <path
               id="path7395"
               sodipodi:nodetypes="ccccccc"
               style="fill:#ffffff"
               inkscape:connector-curvature="0"
               d="m 1458.3,191.68 19,-32.125 31.29,-18.166 6.152,6.1519 -17.957,31.081 -32.333,19.209 -6.152,-6.1519 z" />
            <path
               id="path7397"
               inkscape:connector-curvature="0"
               sodipodi:nodetypes="ccccccc"
               style="fill:#ffffff"
               d="m 1464.4,141.39 32.124,19 18.166,31.29 -6.152,6.1519 -31.081,-17.957 -19.209,-32.333 z" />
          </g>
          <path
             id="path7465"
             style="opacity:0.96;fill:#000000;stroke:#464646;stroke-width:0.12265"
             inkscape:connector-curvature="0"
             d="m 287.18,907.57 c -13.548,0 -24.574,11.026 -24.574,24.574 0,13.548 11.026,24.453 24.574,24.453 13.548,0 24.574,-10.905 24.574,-24.453 0,-13.548 -11.026,-24.574 -24.574,-24.574 z m 0,4.3796 c 11.148,0 20.195,9.0468 20.195,20.195 0,11.1482 -9.0468,20.195 -20.195,20.195 -11.1482,0 -20.195,-9.0468 -20.195,-20.195 0,-11.1482 9.0468,-20.195 20.195,-20.195 z" />
        </g>
      </g>
    </g>
  </g>
  <metadata
     id="metadata53">
    <rdf:RDF>
      <cc:Work>
        <dc:format>image/svg+xml</dc:format>
        <dc:type
           rdf:resource="http://purl.org/dc/dcmitype/StillImage" />
        <cc:license
           rdf:resource="http://creativecommons.org/publicdomain/zero/1.0/" />
        <dc:publisher>
          <cc:Agent
             rdf:about="http://openclipart.org/">
            <dc:title>Openclipart</dc:title>
          </cc:Agent>
        </dc:publisher>
        <dc:title>Simple Gears</dc:title>
        <dc:date>2011-02-24T18:02:05</dc:date>
        <dc:description />
        <dc:source>https://openclipart.org/detail/122467/simple-gears-by-ricardomaia</dc:source>
        <dc:creator>
          <cc:Agent>
            <dc:title>ricardomaia</dc:title>
          </cc:Agent>
        </dc:creator>
        <dc:subject>
          <rdf:Bag>
            <rdf:li>engine</rdf:li>
            <rdf:li>engineering</rdf:li>
            <rdf:li>gear</rdf:li>
            <rdf:li>machine</rdf:li>
            <rdf:li>machinery</rdf:li>
            <rdf:li>mechanics</rdf:li>
            <rdf:li>tools</rdf:li>
            <rdf:li>white</rdf:li>
          </rdf:Bag>
        </dc:subject>
      </cc:Work>
      <cc:License
         rdf:about="http://creativecommons.org/publicdomain/zero/1.0/">
        <cc:permits
           rdf:resource="http://creativecommons.org/ns#Reproduction" />
        <cc:permits
           rdf:resource="http://creativecommons.org/ns#Distribution" />
        <cc:permits
           rdf:resource="http://creativecommons.org/ns#DerivativeWorks" />
      </cc:License>
    </rdf:RDF>
  </metadata>
</svg>
